<?xml version="1.0" standalone="no"?>
<!DOCTYPE svg PUBLIC "-//W3C//DTD SVG 20010904//EN"
 "http://www.w3.org/TR/2001/REC-SVG-20010904/DTD/svg10.dtd">
<svg version="1.0" xmlns="http://www.w3.org/2000/svg"
 width="512.000000pt" height="512.000000pt" viewBox="0 0 512.000000 512.000000"
 preserveAspectRatio="xMidYMid meet">
<metadata>
Created by potrace 1.14, written by Peter Selinger 2001-2017
</metadata>
<g transform="translate(0.000000,512.000000) scale(0.100000,-0.100000)"
fill="#000000" stroke="none">
<path d="M602 4568 c-20 -20 6 -38 57 -38 25 0 74 -5 109 -10 181 -30 311
-109 426 -259 36 -47 1049 -1696 1123 -1827 l23 -42 -2 -768 -3 -769 -28 -57
c-34 -70 -110 -140 -174 -162 -26 -9 -79 -16 -120 -16 -78 0 -113 -11 -113
-35 0 -8 9 -19 19 -25 27 -14 1185 -14 1212 0 10 6 19 17 19 25 0 24 -35 35
-115 35 -43 0 -90 6 -110 14 -59 25 -119 90 -156 168 l-34 73 -3 758 -3 759
24 41 c54 97 1104 1757 1143 1808 131 172 304 265 534 287 66 6 75 9 75 27 0
20 -8 20 -619 23 -452 1 -622 -1 -633 -9 -23 -20 4 -39 56 -39 75 0 122 -18
166 -64 61 -63 83 -170 51 -256 -12 -33 -830 -1482 -882 -1563 -21 -32 -30
-38 -55 -35 -30 3 -44 28 -451 793 -231 435 -426 807 -434 829 -35 97 -5 206
73 260 35 24 54 30 120 34 82 5 105 14 96 38 -4 12 -106 14 -692 14 -513 0
-690 -3 -699 -12z"/>
<path d="M933 4127 c-14 -6 -25 -22 -28 -41 -3 -17 -84 -726 -180 -1576 -96
-850 -178 -1558 -181 -1575 -11 -51 -63 -156 -99 -201 -23 -28 -60 -55 -107
-78 -65 -33 -78 -36 -160 -36 -49 0 -98 -5 -109 -10 -25 -14 -25 -46 0 -60 27
-14 1035 -14 1062 0 21 12 25 45 7 57 -7 4 -51 10 -98 13 -102 7 -137 26 -171
96 l-22 46 92 1116 c50 615 95 1139 99 1166 l7 49 580 -869 c319 -478 585
-869 590 -869 6 0 11 143 12 405 l3 405 -619 979 c-351 556 -627 983 -637 986
-11 4 -29 3 -41 -3z"/>
<path d="M4151 4126 c-12 -6 -316 -451 -676 -988 l-655 -977 0 -298 1 -298 22
25 c12 14 269 387 571 828 302 441 551 801 553 799 8 -8 174 -2363 170 -2419
-6 -105 -88 -178 -202 -178 -65 0 -95 -13 -95 -40 0 -11 9 -24 19 -30 13 -6
219 -10 600 -10 514 0 581 2 595 16 18 18 19 23 6 44 -7 11 -37 16 -122 21
-128 6 -168 21 -245 92 -52 47 -107 151 -122 231 -6 28 -85 744 -176 1591 -92
847 -171 1552 -177 1567 -11 31 -38 40 -67 24z"/>
</g>
</svg>
